<svg fill="none" xmlns="http://www.w3.org/2000/svg" viewBox="0 0 35 36"><path d="M35 18.124c-.062 9.15-7.508 17.545-17.828 17.373A17.442 17.442 0 0 1 0 17.883C.04 8.315 7.824.435 17.698.5 27.348.564 35.006 8.566 35 18.124ZM17.47 7.854a10.176 10.176 0 0 0-1.982.159c-2.618.444-4.969 1.441-6.775 3.462-1.65 1.844-2.312 4.014-1.76 6.443.511 2.256 1.914 3.924 3.848 5.134a12.084 12.084 0 0 0 4.982 1.748c.788.098.9.308.798 1.089-.074.563-.17 1.127-.15 1.698.016.447.286.63.713.49.14-.047.276-.112.407-.182.836-.448 1.678-.886 2.503-1.353 2.512-1.425 4.746-3.173 6.471-5.528.942-1.286 1.639-2.663 1.668-4.286.047-2.506-.937-4.56-2.865-6.148-2.28-1.877-4.93-2.713-7.86-2.727h.001Z" fill="#fff"/><path d="M19.267 16.452c.114-.116.064-.26.066-.386.008-.583.001-1.165.007-1.748.005-.499.195-.737.564-.728.359.01.539.255.541.755.004.636.002 1.274.002 1.91 0 .61-.004 1.22.001 1.83.003.324-.075.599-.413.714-.326.111-.508-.12-.676-.331-.58-.732-1.15-1.473-1.729-2.207-.08-.1-.12-.248-.285-.273-.116.143-.066.312-.068.467-.01.596.005 1.192-.012 1.788-.01.339-.19.566-.547.59-.312.022-.53-.204-.555-.565a31.958 31.958 0 0 1 0-4.1c.016-.268.13-.47.394-.557.256-.083.452.034.604.227.602.766 1.199 1.538 1.802 2.304.088.111.138.268.305.31h-.001ZM21.223 16.163c0-.582-.014-1.165.004-1.747.02-.67.2-.832.863-.834.637-.002 1.273-.004 1.909.001.365.003.574.199.584.525.01.322-.198.559-.548.574a10.43 10.43 0 0 1-1.177-.005c-.355-.024-.471.1-.471.459 0 .366.103.522.486.492.336-.027.676-.013 1.015-.003.411.012.676.227.687.541.013.362-.26.621-.69.634-.38.012-.76.015-1.137-.005-.433-.022-.336.28-.35.524-.014.253.031.418.356.38.43-.052.864-.023 1.295.032.346.043.52.244.507.568-.013.323-.216.534-.549.54-.716.014-1.434.011-2.152 0-.383-.005-.54-.264-.587-.606-.094-.688-.03-1.38-.044-2.07ZM10.394 16.136c0-.61-.007-1.22.002-1.83.006-.477.187-.705.54-.717.356-.012.587.195.603.663.032.975.038 1.95.017 2.926-.01.4.125.53.512.503a4.118 4.118 0 0 1 1.132.05c.299.062.5.196.494.536-.005.326-.188.541-.484.553-.77.03-1.543.038-2.313-.003-.407-.021-.485-.392-.491-.73-.014-.65-.004-1.3-.004-1.951h-.009ZM14.208 16.153c0-.663.006-1.326-.003-1.988-.004-.36.14-.551.514-.585.375-.034.588.08.633.485.043.392.035.783.037 1.175.004.838.003 1.677 0 2.516 0 .176-.006.353-.027.526-.042.352-.2.589-.6.558-.382-.029-.55-.247-.551-.616v-2.07h-.003Z" fill="#fff"/></svg>