<svg xmlns="http://www.w3.org/2000/svg" viewBox="0 0 90 36" xml:space="preserve" enable-background="new 0 0 90 36"><defs><filter id="a" filterUnits="userSpaceOnUse" x="-2.2" y="-1" width="73.6" height="38"><feColorMatrix values="1 0 0 0 0 0 1 0 0 0 0 0 1 0 0 0 0 0 1 0"/></filter></defs><mask maskUnits="userSpaceOnUse" x="-2.2" y="-1" width="73.6" height="38" id="b"><path d="M27.2 19.2c-.9 1-1.3 2.1-1.3 3.4 0 1 .4 1.9 1 2.7.4.5.9 1 1.5 1.4.4.2.9.3 1.4.2.2 0 .4-.4.6-.7-.3-.1-.5-.3-.8-.3-1.5-.3-2.2-1.3-2.6-2.7-.2-.6 0-1.2.1-1.8.5-1.7 1.6-2.5 3.1-2.9.5-.2 1.1-.5 1.6-.4.7.2 1.5.3 2.2.6.6.3 1.2.8 1.8 1.2.6.5 1.2 1.2 1.5 1.9.3.6.6 1.3.7 2 0 .5.3 1.1 0 1.7-.1.2 0 .6 0 1-.2 1.3-.8 2.5-1.6 3.6-.6.8-1.3 1.6-2.2 2.1-1 .6-2 1.2-3.2 1.4-1.2.3-2.3.5-3.5.4-.7-.1-1.3-.2-2-.4-.6-.1-1.2-.3-1.9-.4-.2-.1-.4-.2-.6-.4l-.1-.1c-1.3-.2-2.3-1-3.4-1.7-.6-.4-1.1-.7-1.6-1.2-.7-.6-1.3-1.3-2-1.9-.3-.3-.6-.4-.9-.1-.6.4-1.2.9-1.9 1.3-1.1.6-2.3 1-3.6 1.2-.5.1-1.1-.1-1.6-.1h-.1c-.9.3-1.7-.1-2.5-.4-1.5-.5-2.9-1.5-4-2.7-.4-.4-.7-.9-1.2-1.5.7.1 1.3.2 1.9.4.2 0 .4 0 .6.1.5 0 1 .1 1.6 0 .4 0 .8-.2 1.1-.3 1.4-.5 2.6-1.3 3.5-2.6.8-1.1 1.6-2.3 2.5-3.4.9-1.1 2-2.1 3.3-2.8.9-.5 1.7-.9 2.7-1.3 1-.4 2-.7 3-.7.4 0 .8-.1 1.2-.2.3-.1.5-.3.4-.7-.4-1.7-.5-3.5.2-5.2.6-1.4 1.4-2.6 2.7-3.4.9-.6 1.8-1 2.8-1.1 1.5-.2 3-.2 4.5.5.3.1.6.2.8.4.4.2.7.2 1.1-.2l1.2-1.2c.6-.5 1.2-1.1 1.8-1.6.8-.5 1.7-1 2.5-1.4.7-.3 1.5-.5 2.3-.8.4 0 .8-.1 1.1-.1 1.6-.1 3.2 0 4.8.6 3.2 1.1 5.6 3.1 6.9 6.3.6 1.5.9 3.2.8 4.8-.1 1.4-.5 2.8-1.2 4-.5.8-1.1 1.6-1.7 2.3-.2.2-.5.3-.8.5h-.1c-.9 1.1-2.3 1.4-3.6 1.7-.4.1-.9 0-1.3.1-.5.1-.9-.2-1.4-.1-.4.1-.9-.2-1.4-.5-.8-.4-1.6-1-2.2-1.8-.6-.9-.9-1.9-.7-2.9.1-.7.3-1.4.6-2 .3-.7.9-1.2 1.5-1.6.5-.3 1-.5 1.6-.6 1.3-.2 2.5.1 3.6.8.2.1.4.3.6.5.2.2.4.3.7 0 .3-.2.3-.5.1-.7-.8-.9-1.8-1.3-2.9-1.6-1.2-.3-2.4-.2-3.6.4-.4.2-.9.4-1.2.7-.9.7-1.4 1.6-1.8 2.7-.3.8-.2 1.6-.3 2.4 0 .1.1.3.1.4.4 1.4 1 2.7 2.3 3.5.8.5 1.6 1.1 2.7 1.2.6.1 1.1.3 1.7.3 1.9 0 3.7-.6 5.2-1.7.9-.7 1.8-1.4 2.5-2.3 1.1-1.5 1.8-3.3 2-5.2.1-1.3 0-2.6-.3-3.9-.2-.8-.5-1.5-.8-2.3-.4-1-1-1.9-1.8-2.7-.1-.1-.1-.2-.2-.3l.1-.1c.9-.3 1.9-.6 2.8-.8.8-.1 1.6-.1 2.4-.1 1.3.1 2.6.3 3.8.8 1.4.6 2.7 1.3 3.8 2.4 1.4 1.4 2.4 3 3 4.8.3.7.4 1.4.6 2.1.1.2.1.5.1.7.1.8.2 1.5.2 2.3 0 .5-.2 1-.2 1.5v1c-1.9.4-3.8.9-5.4 2.2-.3-.2-.7-.5-1.1-.7-.2-.1-.5-.1-.8-.2-1.8-.4-3.5-.2-5.2.6-1.7.9-3 2.2-3.8 3.9-.9 2-1 4-.3 6.1.4 1.2 1 2.2 1.9 3.1-.3.2-.5.4-.7.6-2.1 1.5-4.4 2.3-7 2.6-2.9.3-5.5-.6-7.8-2.4-.9-.7-1.8-1.6-2.5-2.5-.2-.2-.2-.4 0-.6.7-1.1 1.3-2.3 1.5-3.6.2-1.3.3-2.7-.1-4-.5-2-1.7-3.5-3.4-4.5-.7-.4-1.5-.6-2.2-1-.5-.3-1.1-.2-1.6-.2-.7 0-1.4 0-2 .3-.8.3-1.4.8-2.2 1.2.1.2-.1.3 0 .7z" fill="#fff" filter="url(#a)"/></mask><path d="M27.2 19.2c-.9 1-1.3 2.1-1.3 3.4 0 1 .4 1.9 1 2.7.4.5.9 1 1.5 1.4.4.2.9.3 1.4.2.2 0 .4-.4.6-.7-.3-.1-.5-.3-.8-.3-1.5-.3-2.2-1.3-2.6-2.7-.2-.6 0-1.2.1-1.8.5-1.7 1.6-2.5 3.1-2.9.5-.2 1.1-.5 1.6-.4.7.2 1.5.3 2.2.6.6.3 1.2.8 1.8 1.2.6.5 1.2 1.2 1.5 1.9.3.6.6 1.3.7 2 0 .5.3 1.1 0 1.7-.1.2 0 .6 0 1-.2 1.3-.8 2.5-1.6 3.6-.6.8-1.3 1.6-2.2 2.1-1 .6-2 1.2-3.2 1.4-1.2.3-2.3.5-3.5.4-.7-.1-1.3-.2-2-.4-.6-.1-1.2-.3-1.9-.4-.2-.1-.4-.2-.6-.4l-.1-.1c-1.3-.2-2.3-1-3.4-1.7-.6-.4-1.1-.7-1.6-1.2-.7-.6-1.3-1.3-2-1.9-.3-.3-.6-.4-.9-.1-.6.4-1.2.9-1.9 1.3-1.1.6-2.3 1-3.6 1.2-.5.1-1.1-.1-1.6-.1h-.1c-.9.3-1.7-.1-2.5-.4-1.5-.5-2.9-1.5-4-2.7-.4-.4-.7-.9-1.2-1.5.7.1 1.3.2 1.9.4.2 0 .4 0 .6.1.5 0 1 .1 1.6 0 .4 0 .8-.2 1.1-.3 1.4-.5 2.6-1.3 3.5-2.6.8-1.1 1.6-2.3 2.5-3.4.9-1.1 2-2.1 3.3-2.8.9-.5 1.7-.9 2.7-1.3 1-.4 2-.7 3-.7.4 0 .8-.1 1.2-.2.3-.1.5-.3.4-.7-.4-1.7-.5-3.5.2-5.2.6-1.4 1.4-2.6 2.7-3.4.9-.6 1.8-1 2.8-1.1 1.5-.2 3-.2 4.5.5.3.1.6.2.8.4.4.2.7.2 1.1-.2l1.2-1.2c.6-.5 1.2-1.1 1.8-1.6.8-.5 1.7-1 2.5-1.4.7-.3 1.5-.5 2.3-.8.4 0 .8-.1 1.1-.1 1.6-.1 3.2 0 4.8.6 3.2 1.1 5.6 3.1 6.9 6.3.6 1.5.9 3.2.8 4.8-.1 1.4-.5 2.8-1.2 4-.5.8-1.1 1.6-1.7 2.3-.2.2-.5.3-.8.5h-.1c-.9 1.1-2.3 1.4-3.6 1.7-.4.1-.9 0-1.3.1-.5.1-.9-.2-1.4-.1-.4.1-.9-.2-1.4-.5-.8-.4-1.6-1-2.2-1.8-.6-.9-.9-1.9-.7-2.9.1-.7.3-1.4.6-2 .3-.7.9-1.2 1.5-1.6.5-.3 1-.5 1.6-.6 1.3-.2 2.5.1 3.6.8.2.1.4.3.6.5.2.2.4.3.7 0 .3-.2.3-.5.1-.7-.8-.9-1.8-1.3-2.9-1.6-1.2-.3-2.4-.2-3.6.4-.4.2-.9.4-1.2.7-.9.7-1.4 1.6-1.8 2.7-.3.8-.2 1.6-.3 2.4 0 .1.1.3.1.4.4 1.4 1 2.7 2.3 3.5.8.5 1.6 1.1 2.7 1.2.6.1 1.1.3 1.7.3 1.9 0 3.7-.6 5.2-1.7.9-.7 1.8-1.4 2.5-2.3 1.1-1.5 1.8-3.3 2-5.2.1-1.3 0-2.6-.3-3.9-.2-.8-.5-1.5-.8-2.3-.4-1-1-1.9-1.8-2.7-.1-.1-.1-.2-.2-.3l.1-.1c.9-.3 1.9-.6 2.8-.8.8-.1 1.6-.1 2.4-.1 1.3.1 2.6.3 3.8.8 1.4.6 2.7 1.3 3.8 2.4 1.4 1.4 2.4 3 3 4.8.3.7.4 1.4.6 2.1.1.2.1.5.1.7.1.8.2 1.5.2 2.3 0 .5-.2 1-.2 1.5v1c-1.9.4-3.8.9-5.4 2.2-.3-.2-.7-.5-1.1-.7-.2-.1-.5-.1-.8-.2-1.8-.4-3.5-.2-5.2.6-1.7.9-3 2.2-3.8 3.9-.9 2-1 4-.3 6.1.4 1.2 1 2.2 1.9 3.1-.3.2-.5.4-.7.6-2.1 1.5-4.4 2.3-7 2.6-2.9.3-5.5-.6-7.8-2.4-.9-.7-1.8-1.6-2.5-2.5-.2-.2-.2-.4 0-.6.7-1.1 1.3-2.3 1.5-3.6.2-1.3.3-2.7-.1-4-.5-2-1.7-3.5-3.4-4.5-.7-.4-1.5-.6-2.2-1-.5-.3-1.1-.2-1.6-.2-.7 0-1.4 0-2 .3-.8.3-1.4.8-2.2 1.2.1.2-.1.3 0 .7z" mask="url(#b)" fill="#9a7412" stroke="#ac920a" stroke-width="2" stroke-opacity=".6"/><path d="M89.8 28c-.8.6-1.8 1.1-2.8 1.3-.9.2-1.8.3-2.7.2l-2.4-.3c-.8-.1-1.5-.3-2.3-.3-1.1-.1-2.2-.1-3.3 0-2.2.1-3.9 1.3-5.7 2.4-1.7 1.1-3.4 2.1-5.4 2.7-1.1.3-2.2.5-3.3.5-2.9-.2-5.3-1.3-6.8-4-.7-1.2-1-2.6-.9-4 .2-2.8 2.1-5.4 5.1-6.3 2-.6 3.9-.4 5.5 1.1 1.6 1.4 1.7 3.8.8 5.2-.8 1.2-3.1 1.8-4.3.6-.3-.3-.6-.2-.8 0-.2.3-.1.5.2.8 1.3 1.1 3 1.1 4.5.3 1.3-.8 2-2 2-3.5.1-1.6-.4-2.9-1.5-4.1.8-.6 1.6-1 2.5-1.3.8-.3 1.8-.6 2.8-.6.9 0 1.7 0 2.6.1.6.1 1.1.3 1.6.5 1.8.8 3.4 2.1 5 3.3 1.9 1.5 3.9 2.9 6.2 3.8 1.1.4 2.2.7 3.4.7v.9z" fill="#9a7412"/><path d="M70.9 19.7h.9c.6 0 1.2 0 1.7.1.4.1.9.3 1.3.5 1.7.8 3.2 1.9 4.8 3.1 2 1.6 4.1 3 6.4 4 .6.3 1.2.4 1.8.6-.4.2-.7.3-1.1.4-.7.1-1.2.2-1.7.2-.2 0-.4 0-.6-.1-.5-.1-1-.1-1.5-.2-.3 0-.6-.1-.9-.1-.3 0-.5-.1-.8-.1-.5-.1-1-.2-1.5-.2-.7 0-1.4-.1-2.2-.1h-1.2c-2.5.1-4.4 1.4-6.2 2.6-1.5 1-3.2 2-5.1 2.5-.9.2-1.8.5-2.7.5H62c-2.9-.2-4.8-1.3-6-3.4-.6-1.1-.9-2.3-.8-3.4.2-2.6 1.9-4.7 4.4-5.4.6-.2 1.2-.3 1.7-.3 1.1 0 2.1.4 2.9 1.1 1.2 1 1.3 2.9.6 3.9-.3.5-1.1.8-1.8.8-.3 0-.7-.1-1-.3-.3-.3-.7-.4-1.1-.4-.5 0-.9.2-1.2.6-.5.7-.4 1.6.3 2.2.8.7 1.9 1.1 3 1.1.9 0 1.8-.3 2.6-.7 1.6-.9 2.5-2.4 2.5-4.4.1-1.5-.3-2.8-1.1-3.9.4-.2.8-.4 1.3-.6 1-.4 1.8-.6 2.6-.6m0-1c-1 0-1.9.3-2.8.6-.9.3-1.7.7-2.5 1.3 1.1 1.2 1.6 2.5 1.5 4.1-.1 1.6-.7 2.8-2 3.5-.7.4-1.4.6-2.1.6-.8 0-1.7-.3-2.4-.9-.3-.3-.4-.5-.2-.8.1-.1.3-.2.4-.2.1 0 .3.1.4.2.5.4 1.1.6 1.7.6 1 0 2.1-.5 2.6-1.3 1-1.4.8-3.8-.8-5.2-1.1-1-2.3-1.4-3.6-1.4-.6 0-1.3.1-2 .3-3.1.9-4.9 3.5-5.1 6.3-.1 1.4.2 2.8.9 4 1.5 2.7 3.9 3.8 6.8 4h.4c1 0 2-.2 2.9-.5 2-.5 3.7-1.5 5.4-2.7 1.8-1.2 3.5-2.3 5.7-2.4h1.2c.7 0 1.5 0 2.2.1.8 0 1.5.2 2.3.3.8.1 1.6.1 2.4.3.3 0 .5.1.8.1.6 0 1.3-.1 1.9-.2 1.1-.2 2-.7 2.9-1.4v-.8h-.2c-1.1 0-2.2-.3-3.2-.7-2.3-.9-4.2-2.4-6.2-3.8-1.6-1.2-3.2-2.5-5-3.3-.5-.2-1.1-.5-1.6-.5-.9-.1-1.7-.1-2.6-.1 0-.1-.1-.1-.1-.1zM89.8 28z" fill="#ac920a" opacity=".6"/></svg>