<svg fill="none" xmlns="http://www.w3.org/2000/svg" viewBox="0 0 35 36"><path d="M17.501.5C27.198.562 35.004 8.289 35 18.017A17.427 17.427 0 0 1 17.48 35.5 17.43 17.43 0 0 1 0 18.017C-.006 8.293 7.802.567 17.501.5ZM7.277 25.682c.137.085.202.127.27.166 2.452 1.424 5.095 1.893 7.896 1.57 2.49-.284 4.704-1.223 6.558-2.912 2.832-2.58 4.223-5.818 4.261-9.64.003-.293.092-.49.325-.658.415-.3.776-.664 1.112-1.048.198-.227.432-.435.557-.784-.747.242-1.438.492-2.21.486.779-.574 1.379-1.266 1.714-2.168-.103-.054-.155-.004-.21.024a9.49 9.49 0 0 1-2.125.797c-.221.053-.388.021-.567-.143-1.07-.986-2.331-1.342-3.766-1.104-2.182.36-3.833 2.588-3.517 4.754.086.586.078.592-.524.519-.182-.022-.366-.026-.546-.053-3.071-.456-5.638-1.85-7.7-4.166-.222-.248-.308-.23-.441.067-.787 1.764-.321 3.822 1.165 5.103.102.088.26.135.282.356-.557.013-1.06-.144-1.548-.354-.245-.106-.342-.062-.303.214.258 1.83 1.21 3.109 2.97 3.75.142.052.31.054.447.212-.494.178-.979.21-1.474.16-.1-.01-.224-.093-.295.004-.08.106.015.224.064.326.7 1.477 1.877 2.305 3.48 2.551.112.018.28-.043.321.076.053.155-.131.203-.23.272-1.766 1.245-3.736 1.758-5.965 1.624l-.001-.001Z" fill="#fff"/></svg>