<svg width="168" height="32" viewBox="0 0 168 32" fill="none" xmlns="http://www.w3.org/2000/svg">
<path d="M1.51394 11.3444C1.51394 11.3444 5.05863 16.4106 10.0089 11.7947C10.0089 11.7947 13.2424 8.36099 16.0983 11.3444C16.0983 11.3444 18.239 14.1027 16.6215 16.5795C16.6215 16.5795 14.5751 19.6457 12.1248 16.9172C12.1248 16.9172 10.9112 15.4818 11.84 13.7649C11.84 13.7649 12.2208 13.3428 12.052 14.2434C12.052 14.2434 11.6 16.3245 13.9079 17.1143C13.9079 17.1143 15.7308 17.3858 16.0735 14.6093C16.0735 14.6093 16.1695 12.1043 13.7887 12.1606C13.7887 12.1606 12.196 12.1044 11.0073 13.1739C11.0073 13.1739 9.75562 14.3841 8.15132 14.8494C8.15132 14.8494 5.40299 16.1159 2.65466 14.005C2.65466 14.005 1.34672 13.1192 1.17951 11.7947C1.17951 11.7947 1.15633 11.3444 1.51229 11.3444" fill="#9A7412"/>
<path d="M23.2582 15.7352C23.2582 15.7352 21.0463 16.1292 20.3559 13.7931C20.3559 13.7931 19.3559 11.2882 22.7831 9.93719C22.7831 9.93719 26.543 8.75342 27.6605 13.1176C27.6605 13.1176 28.182 16.7319 25.1158 18.0481C25.1158 18.0481 21.2831 19.4785 17.7632 16.9173C17.7632 16.9173 17.3112 16.6375 16.9536 16.2004L17.0745 15.6044C17.0745 15.6044 21.2599 18.664 25.0662 16.6656C25.0662 16.6656 26.6837 15.7368 26.2317 13.2882C26.2317 13.2882 25.7085 11.2898 23.5198 11.2898C23.5198 11.2898 21.9884 11.2931 21.2367 12.7253C21.2367 12.7253 20.8079 14.217 22.591 15.2302C22.591 15.2302 23.3989 15.4835 23.2582 15.7368" fill="#9A7412"/>
<path d="M1.51367 21.7583C1.51367 21.7583 1.79016 19.1358 5.86795 19.9586C5.86795 19.9586 7.34311 20.2103 9.08151 21.4785C9.08151 21.4785 11.6014 23.1109 14.1725 23.9553C14.1725 23.9553 15.7669 24.5182 16.1709 24.995C16.1709 24.995 15.0037 24.7715 13.3629 24.4056C13.3629 24.4056 11.0335 23.8146 9.62787 22.8278C9.62787 22.8278 7.56 21.4205 5.96398 21.053C5.96398 21.053 3.75041 20.3775 2.5385 21.4487C2.5385 21.4487 1.58652 22.2649 1.51367 21.7583Z" fill="#9A7412"/>
<path d="M0.0135483 19.7981C0.0135483 19.7981 0.298315 17.4256 3.91584 16.8626C3.91584 16.8626 7.79496 15.9239 11.2188 18.4471C11.2188 18.4471 15.3611 21.5149 17.0731 22.3974C17.0731 22.3974 20.5697 24.5729 23.5449 22.6325C23.5449 22.6325 24.0432 22.3212 23.9488 21.3659C23.9488 21.3659 23.7104 19.7335 22.0217 20.1838C22.0217 20.1838 20.7369 20.7467 21.0946 22.1821C21.0946 22.1821 21.1889 22.7268 20.4058 22.3974C20.4058 22.3974 18.6211 21.0563 20.8578 19.4802C20.8578 19.4802 23.1161 18.005 25.068 20.0663C25.068 20.0663 26.376 21.3941 25.8048 22.8013C25.8048 22.8013 24.1856 26.1788 19.881 25.1093C19.881 25.1093 17.3595 24.0944 14.79 22.2384C14.79 22.2384 12.03 20.4653 10.1029 19.3659C10.1029 19.3659 7.1294 17.2749 2.79996 18.4454C2.79996 18.4454 1.79996 18.7186 0.65924 19.6755C0.65924 19.6755 -0.117246 20.2616 0.0152039 19.7964" fill="#9A7412"/>
<path d="M25.5117 0.00012207L24.2865 1.65905L38.8328 29.2566H3.91247L1.88599 31.9999H42.3924L25.5117 0.00012207Z" fill="#9A7412"/>
<path d="M20.5252 18.9189C20.5252 18.9189 20.5418 18.9073 20.5567 18.899C19.4375 18.6474 18.3944 18.1755 17.4408 17.4851C17.3762 17.4454 17.2007 17.3262 16.9905 17.1424C16.6444 17.5878 15.6279 18.7169 14.2256 18.7169C13.3365 18.7169 12.4822 18.2683 11.6892 17.3842C11.4226 17.0712 11.1064 16.5133 10.9607 15.8295L10.1047 17.015C10.5915 17.2517 11.0799 17.5381 11.5617 17.8941C11.6047 17.9255 15.6842 20.9437 17.3348 21.7947C17.3497 21.8014 17.363 21.808 17.3762 21.8179C17.3878 21.8245 18.4126 22.4487 19.7719 22.6838C19.4888 22.3825 19.1113 21.8378 19.1196 21.1076C19.1312 20.3063 19.6063 19.5696 20.5269 18.9206" fill="#9A7412"/>
<path d="M12.6529 14.3759C12.3896 15.7252 13.6363 16.3063 14.027 16.4537H14.0419C14.4823 16.4537 15.2489 16.207 15.4641 14.5597C15.4641 14.4256 15.436 13.7236 15.032 13.2683C14.7671 12.9719 14.3863 12.8279 13.8681 12.8279H13.8035C13.7919 12.8279 13.7804 12.8279 13.7688 12.8279H13.7489C13.6893 12.8279 13.4277 12.8328 13.0784 12.8991L12.6479 13.4951C12.7406 13.7617 12.7092 14.0729 12.6529 14.3759Z" fill="#9A7412"/>
<path d="M22.3961 0.00012207L15.2488 9.89576C15.6941 10.1275 16.1196 10.4471 16.5186 10.8643C16.5335 10.8809 16.5484 10.8974 16.5633 10.9156C17.2074 11.7451 18.0583 13.4885 17.7686 15.2831C18.5004 15.7302 20.2802 16.6772 22.2537 16.6772C23.1659 16.6772 24.0153 16.4735 24.7851 16.0729C24.9441 15.9719 25.959 15.2567 25.6378 13.452C25.5716 13.2302 25.1146 11.957 23.5186 11.957C23.4755 11.957 22.3812 11.9885 21.8067 12.9802C21.7736 13.202 21.7487 13.9752 22.8216 14.6093C23.656 14.8875 23.7901 15.2633 23.8348 15.3908C23.9176 15.6209 23.8961 15.8759 23.7769 16.0878C23.6841 16.2533 23.5302 16.3659 23.3547 16.3974C23.3216 16.4023 23.1527 16.4305 22.8944 16.4305C22.1742 16.4305 20.4342 16.1971 19.7802 14.0265C19.7007 13.808 19.3994 12.8411 19.8398 11.7252C20.2537 10.6756 21.1709 9.86431 22.5732 9.31298C22.5865 9.30636 22.5997 9.30305 22.613 9.29808C22.6693 9.28153 23.1808 9.1259 23.8977 9.1259C25.1576 9.1259 27.396 9.62093 28.247 12.9404C28.2553 12.9653 28.2586 12.9901 28.2619 13.0166C28.4689 14.4504 28.1262 17.4768 25.3365 18.6739C25.3265 18.6755 25.3182 18.6805 25.3116 18.6838C25.2884 18.6937 25.0434 18.7831 24.6312 18.8792C24.9325 19.0712 25.2222 19.3063 25.4921 19.5878C25.55 19.6474 27.103 21.2533 26.3646 23.0762C26.358 23.0894 26.353 23.101 26.3464 23.1142C26.2901 23.2318 24.9292 25.99 21.5004 25.99C20.9408 25.99 20.3514 25.9155 19.7487 25.7649C19.7206 25.7583 19.6974 25.75 19.6726 25.74C19.565 25.6987 17.0617 24.6804 14.4673 22.8079C14.2537 22.6705 11.6428 21.0017 9.82164 19.9636C9.80508 19.9553 9.78853 19.9454 9.77363 19.9338C9.76535 19.9272 9.28687 19.6043 8.45906 19.2997L7.9392 20.0215C8.38787 20.2467 8.88456 20.5381 9.40442 20.9156C9.60144 21.0414 11.9756 22.5414 14.3481 23.3195C14.7703 23.4685 16.1428 23.9851 16.6196 24.548C16.7968 24.7566 16.8315 25.0695 16.7074 25.3212C16.5981 25.5364 16.3911 25.6689 16.1709 25.6689C16.1345 25.6689 16.0998 25.6655 16.0633 25.6589C16.0517 25.6556 14.8696 25.4288 13.2405 25.0646C13.1246 25.0364 10.772 24.4321 9.29681 23.3973C9.28688 23.3891 7.87629 22.4387 6.55345 21.9387L1.84155 28.4602H37.3546L22.3961 0.00012207Z" fill="#9A7412"/>
<path d="M23.2154 22.0679C23.2452 22.0414 23.3809 21.8841 23.3445 21.4586C23.3114 21.2898 23.1657 20.7715 22.5746 20.7715C22.4654 20.7715 22.3445 20.7881 22.2154 20.8196C22.0068 20.9255 21.5001 21.2682 21.6839 22.0083C21.6889 22.0232 21.6905 22.0398 21.6955 22.0563C21.7104 22.1441 21.7435 22.4239 21.6028 22.6987C22.1856 22.5977 22.7269 22.3874 23.217 22.0696" fill="#9A7412"/>
<path d="M157.159 9.56972C157.118 9.69404 157.093 9.79764 157.052 9.88881C156.873 10.2784 156.691 10.6596 156.513 11.0491C156.401 11.2936 156.438 11.4553 156.645 11.621C156.861 11.7951 157.089 11.9152 157.379 11.8531C157.561 11.8158 157.677 11.7039 157.76 11.534C158.216 10.6057 158.527 9.62359 158.763 8.61245C159.119 7.0833 159.472 5.5583 159.82 4.02915C159.915 3.61889 160.184 3.32466 160.433 3.02215C160.549 2.88125 160.698 2.75693 160.852 2.65747C161.08 2.50414 161.316 2.52072 161.535 2.69891C161.942 3.03043 162.165 3.47385 162.24 3.996C162.319 4.52643 162.335 5.06101 162.169 5.5873C161.896 6.46584 162.542 7.0833 163.185 7.26149C163.342 7.30293 163.504 7.3278 163.67 7.34438C164.018 7.38167 164.171 7.70076 163.96 7.99913C163.881 8.11102 163.769 8.21462 163.653 8.27264C162.965 8.62902 162.273 8.97712 161.577 9.32108C161.361 9.42882 161.142 9.52414 160.918 9.61531C160.325 9.85152 159.919 10.3074 159.65 10.8875C159.36 11.5133 159.111 12.1556 158.842 12.7896C158.751 13.001 158.763 13.2082 158.813 13.4278C159.053 14.4845 159.517 15.4128 160.263 16.1629C160.926 16.8301 161.606 17.4848 162.314 18.1023C163.181 18.8606 164.225 19.2958 165.265 19.7185C165.887 19.9671 166.521 20.195 167.146 20.4312C167.2 20.452 167.254 20.4644 167.308 20.4892C167.569 20.6053 167.619 20.8083 167.432 21.0363C167.349 21.1399 167.246 21.2518 167.13 21.2932C166.181 21.6454 165.236 22.0142 164.275 22.3126C163.562 22.5323 162.82 22.5033 162.116 22.2463C161.846 22.1469 161.61 21.9107 161.386 21.7035C161.167 21.4963 160.98 21.2518 160.781 21.0197C160.466 20.6426 160.11 20.3235 159.691 20.079C159.546 19.992 159.405 19.9754 159.26 20.0624C158.56 20.5017 157.847 20.9244 157.168 21.3927C156.587 21.7946 156.301 22.4411 156.074 23.1124C155.904 23.6139 156.355 23.9993 156.778 23.8625C157.681 23.5766 158.585 23.2948 159.468 22.9508C160.533 22.5364 162.02 23.1953 162.402 24.3142C162.439 24.4261 162.443 24.5753 162.41 24.6913C162.323 24.9814 162.223 25.2673 162.095 25.5367C161.83 26.0837 161.548 26.6266 161.262 27.157C161.042 27.5631 161.063 27.9651 161.216 28.3753C161.291 28.5701 161.395 28.7525 161.473 28.9472C161.552 29.1461 161.656 29.3492 161.672 29.5564C161.718 30.0578 161.415 30.4888 160.947 30.5883C160.035 30.783 159.119 30.9529 158.204 31.1311C157.951 31.1809 157.694 31.2182 157.441 31.2679C156.994 31.3549 156.608 31.243 156.281 30.8991C155.999 30.6048 155.895 30.6131 155.589 30.8742C155.419 31.0192 155.241 31.1601 155.05 31.272C154.971 31.3176 154.83 31.3259 154.756 31.2803C154.524 31.1394 154.296 30.9778 154.089 30.7955C153.247 30.062 152.655 29.1379 152.361 28.0355C152.236 27.5631 152.232 27.0534 152.186 26.5603C152.141 26.1127 152.112 25.6651 152.07 25.2176C152.054 25.0435 151.992 24.8902 151.809 24.8488C151.631 24.8073 151.519 24.9234 151.445 25.0684C150.836 26.1914 149.899 26.9954 149.025 27.8615C148.672 28.2096 148.299 28.537 147.839 28.7317C147.462 28.8892 147.064 28.9472 146.671 28.8809C146.493 28.8519 146.319 28.7152 146.173 28.5908C146.12 28.5411 146.099 28.3588 146.14 28.2925C146.302 28.0438 146.455 27.7496 146.683 27.6004C148.167 26.6431 149.252 25.3129 150.09 23.7382C150.554 22.8596 150.997 21.9687 151.449 21.0818C151.515 20.9534 151.561 20.8166 151.602 20.6757C151.652 20.5224 151.648 20.3649 151.499 20.2696C151.354 20.1784 151.208 20.1992 151.08 20.3152C151.055 20.3359 151.03 20.3566 151.014 20.3856C150.686 21.0445 150.131 21.4838 149.601 21.9355C148.54 22.8431 147.462 23.7257 146.381 24.6084C145.631 25.2176 144.831 25.748 143.969 26.1583C143.72 26.2785 143.43 26.3199 143.152 26.3572C142.838 26.3986 142.61 26.2163 142.498 25.9221C142.183 25.0808 142.274 24.2893 142.809 23.5683C142.983 23.3362 143.181 23.1373 143.447 23.0213C143.459 23.0171 143.467 23.0088 143.48 23.0005C144.027 22.6234 144.578 22.2505 145.121 21.8734C145.229 21.7988 145.328 21.6993 145.428 21.6081C145.788 21.2725 145.987 20.8622 145.946 20.3442C145.896 19.7309 146.008 19.1342 146.066 18.5333C146.12 17.9821 146.095 17.4227 146.086 16.8632C146.086 16.7555 146.012 16.6187 145.929 16.5441C145.399 16.0593 144.785 15.8355 144.081 15.9723C143.509 16.0841 142.813 15.5703 142.751 14.9611C142.734 14.7912 142.784 14.5716 142.883 14.4473C143.061 14.2235 143.273 14.0038 143.517 13.8712C144.271 13.4485 145.038 13.0507 145.813 12.6736C146.447 12.3669 146.77 11.8655 146.849 11.1445C146.957 10.1582 147.098 9.17603 147.238 8.1939C147.375 7.24491 147.529 6.30008 147.686 5.35524C147.719 5.14804 147.785 4.94498 147.868 4.75436C148.059 4.32338 148.333 4.19905 148.763 4.3358C149.141 4.45184 149.472 4.64246 149.7 4.9947C149.808 5.15632 149.928 5.30965 150.044 5.46712C150.512 6.10945 150.521 6.82637 150.355 7.56815C150.255 8.01156 150.123 8.44668 150.019 8.88595C149.94 9.22991 150.036 9.54071 150.218 9.82665C150.264 9.8971 150.347 9.95512 150.421 9.99656C150.55 10.0629 150.682 10.1292 150.823 10.1665C151.13 10.2493 151.362 10.44 151.573 10.6762C151.801 10.929 151.996 10.9124 152.195 10.6306C152.448 10.2825 152.725 9.96755 153.09 9.73134C153.438 9.50342 153.475 9.0973 153.438 8.72019C153.401 8.29336 153.301 7.87481 153.222 7.45212C153.048 6.54043 152.999 5.63289 153.272 4.72534C153.426 4.21148 153.736 3.91311 154.225 3.79294C154.337 3.76393 154.445 3.70177 154.544 3.63132C154.897 3.37439 155.149 3.43241 155.373 3.82195C155.56 4.14933 155.568 4.514 155.626 4.87039C155.812 6.04729 155.92 7.23249 155.933 8.43011C155.933 8.61245 155.978 8.79893 156.028 8.97298C156.136 9.35009 156.418 9.53657 156.878 9.56558C156.956 9.56972 157.039 9.56558 157.159 9.56558V9.56972ZM148.656 19.1632C148.664 19.2295 148.676 19.3248 148.697 19.4242C148.784 19.8262 149.116 19.9837 149.443 19.7475C149.8 19.4905 150.139 19.2046 150.483 18.927C150.69 18.757 150.881 18.5581 151.105 18.4172C151.333 18.2722 151.552 18.4048 151.586 18.6825C151.602 18.8399 151.586 18.9974 151.577 19.1549C151.569 19.3165 151.61 19.4532 151.764 19.503C151.921 19.5568 152.062 19.5154 152.153 19.3538C152.373 18.9684 152.613 18.5913 152.816 18.1976C153.43 17.0207 154.035 15.8355 154.631 14.6545C154.864 14.1945 155.079 13.722 155.294 13.2538C155.369 13.0963 155.365 12.943 155.286 12.7772C155.062 12.3048 154.723 12.1556 154.242 12.3338C153.91 12.454 153.579 12.5866 153.243 12.6943C152.903 12.8021 152.568 12.6777 152.361 12.3794C152.253 12.226 152.116 12.1224 151.934 12.1349C151.726 12.1515 151.619 12.3089 151.544 12.4954C151.507 12.5907 151.494 12.7109 151.436 12.7896C151.13 13.1999 150.831 13.6226 150.483 13.9955C150.119 14.3892 149.7 14.7208 149.315 15.0937C149.223 15.1807 149.153 15.3134 149.12 15.4377C148.793 16.6436 148.788 17.8992 148.656 19.1673V19.1632ZM159.774 25.3419C159.749 24.8695 159.492 24.5255 159.095 24.6664C158.245 24.9731 157.383 25.2507 156.529 25.5325C155.875 25.748 155.427 26.1707 155.377 26.9125C155.34 27.4595 155.361 28.0107 155.398 28.5577C155.411 28.7607 155.527 28.9679 155.634 29.1503C155.738 29.3285 155.916 29.4528 156.115 29.3824C156.389 29.2829 156.695 29.1834 156.902 28.9845C157.466 28.4458 158.005 27.8739 158.519 27.2813C158.896 26.8503 159.235 26.3779 159.559 25.9014C159.683 25.7232 159.72 25.4787 159.77 25.3419H159.774ZM154.893 19.9174C154.942 19.9008 155.05 19.8842 155.145 19.8386C155.522 19.6604 155.904 19.4864 156.268 19.2833C156.761 19.0057 157.263 18.7529 157.806 18.5913C158.15 18.4918 158.345 18.1272 158.245 17.7625C158.183 17.5387 158.088 17.3191 157.98 17.1119C157.748 16.6643 157.52 16.2168 157.255 15.7941C157.134 15.6034 156.948 15.446 156.761 15.3175C156.608 15.2098 156.426 15.2595 156.293 15.3962C156.202 15.4874 156.127 15.5951 156.065 15.707C155.829 16.1339 155.601 16.569 155.369 17C155.029 17.6423 154.689 18.2805 154.358 18.927C154.118 19.3952 154.379 19.9215 154.893 19.9215V19.9174ZM154.163 20.7876C153.629 20.7959 153.363 21.0528 153.177 21.4299C153.024 21.7449 152.854 22.0598 152.709 22.3789C152.497 22.8348 152.294 23.2948 152.091 23.7589C152.021 23.9205 152.025 24.0821 152.149 24.2147C152.273 24.3432 152.419 24.3018 152.555 24.2437C152.912 24.0904 153.276 24.0738 153.645 24.1899C154.01 24.3059 154.362 24.252 154.656 24.0324C155.245 23.5931 155.638 22.984 155.883 22.2753C155.92 22.1717 155.929 22.0557 155.937 21.9438C155.953 21.7573 155.904 21.604 155.734 21.5128C155.419 21.3471 155.116 21.1606 154.793 21.0114C154.561 20.9037 154.308 20.8373 154.163 20.7876Z" fill="#9A7412"/>
<path d="M129.067 26.5892C129.432 26.3779 129.755 26.3116 130.087 26.2867C130.211 26.2784 130.34 26.2867 130.464 26.2784C130.99 26.2618 131.371 25.8474 131.33 25.3046C131.272 24.4965 131.185 23.6884 131.119 22.8803C131.044 21.9852 130.974 21.0942 130.907 20.1991C130.853 19.4739 130.824 18.7487 130.75 18.0235C130.704 17.5801 130.514 17.4558 130.095 17.5511C129.295 17.7293 128.549 18.0567 127.808 18.4048C127.033 18.7653 126.249 19.1009 125.47 19.4532C125.387 19.4905 125.284 19.5361 125.238 19.6065C125.172 19.706 125.106 19.8386 125.118 19.9463C125.139 20.1121 125.276 20.2115 125.441 20.224C125.528 20.2323 125.62 20.224 125.702 20.195C126.274 19.9795 126.85 19.7681 127.414 19.5319C127.994 19.2874 128.591 19.101 129.217 19.0429C129.333 19.0305 129.502 19.0719 129.565 19.1548C129.656 19.2791 129.589 19.4532 129.478 19.5609C129.382 19.6563 129.262 19.7516 129.142 19.7889C128.118 20.0997 127.086 20.3897 126.059 20.7047C125.781 20.7876 125.516 20.916 125.259 21.0569C125.102 21.144 124.948 21.2683 124.849 21.4133C124.666 21.6827 124.849 22.0225 125.16 22.0308C125.288 22.0308 125.425 22.0142 125.545 21.9686C126.183 21.7117 126.809 21.4175 127.459 21.1854C128.015 20.9865 128.595 20.8497 129.167 20.7006C129.357 20.6508 129.544 20.713 129.677 20.8829C129.788 21.0279 129.776 21.1813 129.639 21.2973C129.565 21.3553 129.482 21.405 129.395 21.4423C127.965 22.0059 126.535 22.5654 125.056 22.9798C124.774 23.0585 124.534 23.3776 124.505 23.6843C124.48 23.9785 124.604 24.1484 124.882 24.1069C125.329 24.0365 125.777 23.9536 126.204 23.8127C126.983 23.5558 127.745 23.2533 128.516 22.9715C128.545 22.9591 128.574 22.9466 128.599 22.9259C128.947 22.6358 129.291 22.6648 129.639 22.9259C129.784 23.0336 129.942 23.1207 130.074 23.2367C130.356 23.4812 130.319 23.7837 129.991 23.9578C129.958 23.9743 129.925 23.9951 129.888 24.0075C129.171 24.252 128.587 24.7078 128.044 25.2341C126.714 26.5105 125.392 27.791 124.057 29.0632C123.208 29.8754 122.35 30.6752 121.492 31.4792C121.268 31.6905 121.028 31.6449 120.891 31.3632C120.643 30.8534 120.468 30.323 120.572 29.7387C120.647 29.3119 121.119 28.856 121.538 28.8311C122.014 28.8063 122.424 28.6198 122.768 28.2966C123.386 27.7164 123.987 27.1197 124.592 26.5271C124.633 26.4898 124.675 26.4359 124.683 26.382C124.708 26.2536 124.716 26.1251 124.733 25.9925C124.625 25.98 124.517 25.9469 124.414 25.9635C124.003 26.0339 123.601 26.1292 123.191 26.1955C122.967 26.2328 122.739 26.2535 122.516 26.237C122.238 26.2163 122.022 26.0919 121.857 25.8226C121.426 25.1139 121.285 24.3349 121.252 23.5226C121.243 23.2864 121.264 23.0502 121.243 22.814C121.223 22.5944 121.19 22.3747 121.123 22.1675C121.028 21.8775 121.011 21.6205 121.235 21.3885C121.364 21.2559 121.488 21.115 121.612 20.9741C121.724 20.8414 121.844 20.713 121.931 20.5638C122.557 19.4863 123.436 18.6783 124.447 18.0069C124.662 17.8619 124.882 17.721 125.102 17.5801C125.338 17.4309 125.557 17.4516 125.789 17.6091C125.959 17.721 126.171 17.8909 126.336 17.8619C126.656 17.808 126.97 17.6588 127.256 17.4972C127.455 17.3853 127.401 17.1367 127.352 16.9378C127.232 16.4902 127.194 16.0427 127.352 15.6034C127.609 14.8699 128.048 14.3312 128.844 14.2234C128.918 14.2151 129.001 14.1944 129.067 14.2151C129.469 14.327 129.805 14.1115 130.153 13.9748C130.335 13.9002 130.505 13.5977 130.476 13.3946C130.464 13.32 130.402 13.2289 130.34 13.1916C130.141 13.0797 129.929 13.088 129.718 13.1708C129.27 13.3449 128.819 13.5065 128.375 13.693C127.679 13.9872 127.12 14.4555 126.689 15.0978C126.158 15.8935 125.425 16.4446 124.629 16.9129C124.248 17.1367 123.842 17.319 123.444 17.5096C123.075 17.6878 122.702 17.8619 122.329 18.0359C121.869 18.2473 121.409 18.4545 120.949 18.67C120.672 18.7984 120.386 18.7943 120.096 18.728C119.752 18.6492 119.503 18.442 119.379 18.0939C119.234 17.692 119.205 17.2776 119.304 16.859C119.424 16.3493 119.772 16.0592 120.274 15.9722C120.58 15.9225 120.883 15.8313 121.185 15.736C121.376 15.6738 121.533 15.649 121.703 15.8106C121.944 16.0427 122.213 16.1421 122.557 15.9846C122.851 15.8479 123.183 15.794 123.494 15.6821C123.622 15.6324 123.751 15.5454 123.85 15.4459C123.974 15.3216 124.065 15.1641 123.958 14.9693C123.858 14.7912 123.635 14.6876 123.436 14.7373C123.307 14.7704 123.191 14.8409 123.063 14.8699C122.984 14.8906 122.893 14.8699 122.806 14.8699C122.822 14.787 122.818 14.6917 122.855 14.6171C123 14.3022 122.889 14.1405 122.561 14.0825C122.246 14.0245 121.94 13.8878 121.633 13.7759C121.521 13.7344 121.504 13.6225 121.583 13.5355C121.67 13.4361 121.761 13.32 121.877 13.2662C122.445 12.9885 123.021 12.7274 123.593 12.4622C123.664 12.4291 123.734 12.4 123.796 12.3586C124.024 12.2011 124.107 12.0271 124.057 11.824C123.995 11.5671 123.804 11.4138 123.547 11.3682C123.257 11.3185 122.971 11.248 122.69 11.161C122.607 11.1361 122.545 11.0325 122.474 10.9621C122.545 10.8875 122.607 10.788 122.69 10.7424C123.009 10.5684 123.311 10.3819 123.589 10.1374C123.929 9.83903 124.36 9.70228 124.795 9.61111C125.035 9.56138 125.276 9.51166 125.516 9.46607C125.889 9.39148 126.486 9.68156 126.635 10.0421C126.693 10.1788 126.701 10.3653 126.664 10.5145C126.581 10.8543 126.382 11.1278 126.125 11.3516C125.698 11.7246 125.653 11.9359 125.939 12.4249C126.055 12.6197 126.067 12.8269 125.939 13.0175C125.847 13.1543 125.736 13.2869 125.62 13.4029C125.429 13.5935 125.342 13.8214 125.338 14.0867C125.334 14.3436 125.47 14.4348 125.69 14.3187C125.773 14.2773 125.847 14.211 125.914 14.1447C126.204 13.8339 126.498 13.5272 126.772 13.1998C126.954 12.9844 127.157 12.8269 127.422 12.7606C127.774 12.6736 128.035 12.4498 128.259 12.1638C128.454 11.9193 128.475 11.7163 128.313 11.4511C128.255 11.3599 128.193 11.2604 128.11 11.1941C127.716 10.8543 127.65 10.4358 127.762 9.93849C127.957 9.07239 128.4 8.33475 128.889 7.62612C128.926 7.57225 128.968 7.52252 129.001 7.46864C129.076 7.34432 129.154 7.21586 129.059 7.07082C128.96 6.91749 128.806 6.87605 128.641 6.91749C128.355 6.98793 128.06 7.0501 127.783 7.14541C126.088 7.72972 124.467 8.48393 122.909 9.38733C121.998 9.91363 121.393 10.6637 121.098 11.6914C121.086 11.737 121.065 11.7784 121.057 11.8199C120.949 12.5244 120.502 12.9926 120.017 13.4236C119.706 13.6971 119.519 14.0411 119.399 14.4348C119.374 14.5177 119.308 14.6212 119.238 14.6503C118.939 14.7663 118.641 14.8865 118.33 14.9569C118.057 15.0191 117.767 15.0149 117.485 15.0398C117.203 15.0647 117.058 14.9528 116.996 14.671C116.9 14.2193 116.793 13.7676 116.718 13.3117C116.668 13.0092 116.644 12.7026 116.635 12.3959C116.615 11.8033 116.685 11.2066 116.598 10.614C116.581 10.4896 116.606 10.3529 116.627 10.2244C116.668 9.98408 116.784 9.80588 117.025 9.72715C117.232 9.66084 117.381 9.51165 117.514 9.32103C118.202 8.34718 119.026 7.51423 119.955 6.78902C120.112 6.6647 120.299 6.57353 120.481 6.49065C120.638 6.4202 120.796 6.46579 120.862 6.63984C120.966 6.91749 121.044 7.20757 121.127 7.48937C121.144 7.54324 121.132 7.6054 121.14 7.66341C121.194 8.05295 121.401 8.21043 121.761 8.08611C122.259 7.9162 122.744 7.72143 123.233 7.53495C124.012 7.23658 124.791 6.93821 125.566 6.63155C125.69 6.58182 125.802 6.48651 125.905 6.39534C125.947 6.36219 125.988 6.26688 125.972 6.23372C125.947 6.17985 125.872 6.14255 125.81 6.12183C125.375 6.00166 124.94 6.00995 124.509 6.13841C124.414 6.16742 124.31 6.18814 124.211 6.18814C124.153 6.18814 124.09 6.15084 124.028 6.13012C124.057 6.06796 124.078 6.00166 124.119 5.95193C124.327 5.70743 124.55 5.47537 124.749 5.22673C124.853 5.09826 124.932 4.94493 125.006 4.7916C125.209 4.36891 125.093 3.79288 124.745 3.48623C124.223 3.01795 124.202 2.42121 124.708 1.97366C124.791 1.90321 124.903 1.84519 125.01 1.83276C125.951 1.72087 126.871 1.82447 127.77 2.12284C128.558 2.38806 129.042 2.9848 129.374 3.74316C129.482 3.9918 129.569 4.25288 129.643 4.51395C129.793 5.01124 130.041 5.18528 130.547 5.13556C131.877 4.9988 133.207 4.86619 134.533 4.72944C134.554 4.72944 134.575 4.72944 134.591 4.72115C134.952 4.52224 135.271 4.67557 135.59 4.84962C135.768 4.94493 135.963 5.00709 136.149 5.08997C136.953 5.43807 137.43 6.16327 137.401 7.00866C137.397 7.13712 137.384 7.27388 137.339 7.39405C137.302 7.49351 137.235 7.59711 137.152 7.65927C136.311 8.28917 135.35 8.58753 134.339 8.75744C133.941 8.82374 133.559 9.00194 133.17 9.13869C133.091 9.1677 133.017 9.22986 132.954 9.29202C132.776 9.48265 132.606 9.68571 132.718 9.98408C132.797 10.1871 133.116 10.3405 133.402 10.3073C133.796 10.2617 134.189 10.1996 134.579 10.1374C135.064 10.0587 135.507 10.183 135.909 10.4606C136.195 10.6554 136.137 11.0491 135.81 11.19C135.159 11.4718 134.504 11.7411 133.854 12.0188C133.705 12.081 133.522 12.1348 133.51 12.3379C133.497 12.5327 133.655 12.628 133.792 12.7274C133.891 12.7979 133.982 12.8766 134.082 12.9471C134.836 13.4982 135.01 14.3146 135.002 15.1973C135.002 15.6034 134.72 15.8313 134.31 15.7691C133.932 15.7111 133.555 15.6158 133.182 15.5371C132.714 15.4418 132.283 15.5661 131.865 15.7609C131.798 15.7899 131.728 15.9018 131.732 15.9681C131.732 16.0344 131.819 16.1172 131.889 16.1504C132.08 16.2457 132.283 16.3245 132.482 16.4032C133.124 16.6435 133.452 17.1408 133.506 17.8246C133.555 18.4711 133.551 19.1217 133.588 19.7681C133.655 21.0155 133.729 22.267 133.808 23.5144C133.858 24.3059 133.908 25.0932 133.974 25.8847C134.007 26.2991 134.281 26.5685 134.554 26.8379C134.823 27.1031 135.105 27.3683 135.312 27.6791C135.499 27.965 135.59 28.3173 135.714 28.6405C135.835 28.9555 135.951 29.2746 136.058 29.5936C136.224 30.0785 136.386 30.5675 136.551 31.0565C136.605 31.2222 136.667 31.3839 136.506 31.5206C136.34 31.6657 136.145 31.6822 135.946 31.5538C135.113 31.0151 134.26 30.5012 133.452 29.9252C132.461 29.2165 131.508 28.4457 130.538 27.7122C130.244 27.4885 129.929 27.2937 129.631 27.0741C129.444 26.9373 129.275 26.7757 129.063 26.5934L129.067 26.5892ZM133.58 5.86905C133.443 5.87733 133.303 5.86905 133.166 5.89392C132.499 6.01824 131.831 6.15084 131.164 6.28345C130.878 6.33732 130.596 6.38705 130.315 6.45336C130.054 6.51137 129.991 6.68957 130.099 6.92163C130.174 7.07496 130.219 7.24901 130.261 7.41892C130.311 7.61369 130.331 7.81675 130.385 8.01152C130.518 8.50466 130.874 8.70357 131.334 8.50051C132.32 8.06953 133.249 7.53081 133.986 6.702C134.106 6.56525 134.152 6.34561 134.198 6.15499C134.231 6.0058 134.123 5.91049 133.978 5.88977C133.845 5.87319 133.713 5.87319 133.58 5.86905ZM133.058 13.5355C133.017 13.2454 132.979 12.9553 132.925 12.6653C132.917 12.6073 132.834 12.5202 132.793 12.5244C132.391 12.5741 132.039 12.7399 131.906 13.1708C131.836 13.3946 131.815 13.6433 131.827 13.8795C131.844 14.2234 131.985 14.3187 132.312 14.2814C132.814 14.2193 133.062 13.9665 133.054 13.5314L133.058 13.5355ZM130.402 11.1776C129.958 11.3516 129.1 12.0685 129.055 12.3006C129.084 12.3089 129.109 12.3296 129.138 12.3296C129.618 12.3296 130.074 12.2426 130.48 11.9566C130.609 11.8655 130.642 11.7163 130.588 11.5712C130.538 11.4345 130.464 11.306 130.398 11.1817L130.402 11.1776ZM132.362 11.5422C132.519 11.4593 132.685 11.3848 132.834 11.2853C132.884 11.2522 132.921 11.1527 132.917 11.0864C132.905 10.8377 132.349 10.5477 132.142 10.672C132.005 10.7549 131.898 11.0657 131.943 11.2314C131.993 11.393 132.155 11.5049 132.358 11.5422H132.362ZM131.003 16.1753C130.911 16.1338 130.882 16.1131 130.853 16.109C130.804 16.1007 130.754 16.0965 130.704 16.0965C130.244 16.1048 129.834 16.2789 129.428 16.4736C129.345 16.5151 129.291 16.6187 129.225 16.6974C129.337 16.7389 129.453 16.7803 129.565 16.8176C129.585 16.8259 129.614 16.8052 129.635 16.7969C129.871 16.7057 130.107 16.6228 130.34 16.5192C130.551 16.4239 130.75 16.3079 131.003 16.1753Z" fill="#9A7412"/>
<path d="M99.6524 9.36665C98.9148 9.69817 98.2186 10.0173 97.5182 10.3198C97.1245 10.4938 96.7557 10.701 96.4118 11.0077C96.6811 11.248 96.9381 11.4884 97.2074 11.708C97.3442 11.8199 97.4022 11.9318 97.4229 12.1141C97.4602 12.4042 97.5638 12.6819 97.6467 13.0093C97.8539 12.9264 98.0445 12.8684 98.2186 12.7772C98.4921 12.6404 98.7573 12.4788 99.0308 12.3379C99.0764 12.3131 99.1427 12.3379 99.1966 12.3379C99.1883 12.4001 99.2049 12.4871 99.1676 12.5203C98.8733 12.8103 98.5708 13.0963 98.2683 13.3822C98.2517 13.3988 98.2103 13.4112 98.2103 13.4237C98.231 13.7096 97.9824 13.7179 97.8125 13.7966C97.7047 13.8464 97.6633 13.8961 97.6633 14.0163C97.6633 14.1323 97.6467 14.2608 97.6053 14.3685C97.5099 14.6006 97.369 14.8202 97.0872 14.8326C96.7889 14.8451 96.5319 14.7249 96.3703 14.4638C96.246 14.269 96.1507 14.0536 96.0222 13.8588C95.9103 13.6889 95.873 13.5107 95.8772 13.3076C95.8855 12.8021 95.8689 12.2965 95.8855 11.7951C95.8938 11.5671 95.8233 11.3807 95.67 11.1859C95.1851 11.4801 94.6961 11.7702 94.2113 12.0769C93.8176 12.3255 93.4322 12.5907 93.1504 12.9761C92.7899 13.4734 92.4211 13.9582 92.0771 14.4638C91.8533 14.7953 91.7539 15.1724 91.8658 15.5786C91.8782 15.6283 91.8533 15.7153 91.816 15.7443C91.6337 15.8728 91.6337 16.0593 91.5923 16.2499C91.4721 16.8135 91.3188 17.3729 91.1737 17.9324C91.1571 18.007 91.1364 18.0774 91.1116 18.1479C91.095 18.1893 91.066 18.2556 91.0452 18.2556C90.7552 18.2597 90.6433 18.5498 90.4029 18.6369C89.9305 18.8109 89.8269 18.8026 89.5202 18.3634C89.3172 18.0691 89.1266 17.7625 88.9774 17.4392C88.8696 17.1989 88.795 16.9295 88.7743 16.6643C88.6707 15.1807 89.0768 13.7842 89.5741 12.4125C90.0382 11.1237 90.5107 9.83907 90.9789 8.55028C91.0328 8.39695 91.0701 8.23533 91.1198 8.082C91.1654 7.92453 91.2566 7.88309 91.3851 7.99083C91.9072 8.41767 92.334 8.9191 92.3299 9.63602C92.3299 10.0877 92.2512 10.5353 92.2056 10.987C92.1973 11.0699 92.1931 11.1527 92.1683 11.2273C92.1227 11.3848 92.16 11.4967 92.3382 11.5754C92.6448 11.3226 92.9639 11.0574 93.283 10.7922C93.7472 10.4068 94.2569 10.1126 94.8578 10.0173C95.2307 9.95925 95.4835 9.69403 95.8067 9.55728C95.8275 9.54899 95.8606 9.52412 95.8606 9.50755C95.8606 9.24233 96.072 9.3335 96.2087 9.29206C96.3952 9.23819 96.5692 9.15116 96.7516 9.07657C97.7503 8.66217 98.7366 8.21875 99.6441 7.61787C99.669 7.60129 99.7021 7.58886 99.7229 7.564C99.756 7.53085 99.785 7.49355 99.814 7.45625C99.7767 7.43139 99.7394 7.39409 99.698 7.38166C99.5322 7.32779 99.3623 7.27392 99.1924 7.23248C99.0722 7.20347 99.0267 7.14545 99.0225 7.02113C99.0225 6.94239 98.9935 6.86365 98.9604 6.78906C98.8112 6.42024 98.9189 6.15088 99.2836 5.98927C99.6441 5.83179 100.009 5.86494 100.378 5.94782C100.606 6.00169 100.833 6.03485 101.057 6.09701C101.31 6.16331 101.584 6.21304 101.807 6.33736C102.226 6.56943 102.657 6.557 103.092 6.47826C103.888 6.32907 104.679 6.14674 105.479 5.99756C105.943 5.91053 106.411 5.86909 106.9 5.80279C106.888 5.62045 107.016 5.59558 107.178 5.59144C107.903 5.57072 108.624 5.53757 109.349 5.51685C109.499 5.51685 109.648 5.54999 109.797 5.57071C109.909 5.58729 109.988 5.62873 110.042 5.74062C110.12 5.90224 110.361 5.9644 110.56 5.88981C110.709 5.83179 110.8 5.82765 110.812 6.02656C110.812 6.07214 110.879 6.13016 110.928 6.15088C111.401 6.35394 111.844 6.59844 112.242 6.92167C112.275 6.95068 112.317 6.98383 112.354 6.98383C112.735 6.96311 112.955 7.2532 113.112 7.49769C113.266 7.72976 113.373 8.07371 113.224 8.37623C113.021 8.79892 112.793 9.21332 112.561 9.61944C112.325 10.0338 112.114 10.4731 111.811 10.8378C111.194 11.5796 110.385 12.023 109.42 12.1432C108.902 12.2095 108.371 12.2053 107.903 12.4788C107.887 12.4871 107.866 12.4995 107.849 12.4954C107.447 12.4498 107.124 12.6943 106.755 12.7813C106.395 12.8642 106.034 12.9388 105.674 13.0134C105.636 13.0217 105.595 13.0217 105.562 13.0093C105.487 12.9761 105.417 12.9305 105.346 12.8891C105.396 12.8269 105.437 12.7399 105.504 12.7067C105.835 12.541 106.175 12.3918 106.507 12.226C106.71 12.1224 106.929 12.0188 106.921 11.7246C106.921 11.6873 106.979 11.621 107.025 11.6086C107.576 11.4138 107.874 10.9621 108.185 10.5146C108.367 10.2493 108.492 9.97168 108.575 9.65259C108.682 9.25062 108.885 8.87351 109.03 8.47983C109.13 8.21047 109.213 7.93282 109.296 7.65931C109.341 7.50184 109.296 7.41896 109.109 7.37337C107.418 6.94654 105.786 7.21176 104.178 7.78363C103.705 7.94939 103.229 8.11515 102.76 8.29749C102.445 8.42181 102.371 8.48811 102.387 8.81549C102.404 9.09729 102.387 9.38323 102.396 9.66502C102.396 9.76033 102.45 9.85151 102.487 9.97168C102.644 9.83493 102.756 9.72718 102.876 9.63187C103.03 9.51169 103.208 9.44539 103.407 9.48683C103.54 9.51584 103.639 9.48269 103.726 9.38323C103.817 9.27963 103.904 9.28792 103.999 9.38323C104.24 9.6153 104.522 9.7479 104.857 9.76448C104.924 9.76448 105.002 9.81007 105.056 9.85565C105.284 10.0463 105.504 10.2452 105.728 10.44C105.757 10.4648 105.786 10.4938 105.794 10.5311C105.852 10.7466 105.91 10.9621 105.964 11.1817C106.034 11.4677 105.889 11.6707 105.599 11.6127C105.309 11.5588 105.226 11.6873 105.131 11.9111C104.911 12.4208 104.551 12.8394 104.165 13.2289C103.502 13.8961 102.835 14.555 102.151 15.2015C102.01 15.3341 101.832 15.4211 101.7 15.5744C101.559 15.7402 101.588 15.8686 101.716 15.9764C101.932 16.1587 102.164 16.3162 102.392 16.482C102.669 16.685 102.955 16.8839 103.229 17.0911C103.291 17.1367 103.341 17.2113 103.378 17.2818C103.49 17.4931 103.448 17.5718 103.212 17.6009C103.171 17.605 103.117 17.6299 103.092 17.663C102.657 18.2639 102.035 18.6161 101.397 18.9559C100.958 19.188 100.498 19.4035 100.121 19.7185C99.5074 20.2365 98.9438 20.8166 98.3802 21.3968C98.1937 21.5916 98.0818 21.8568 97.9243 22.0847C97.887 22.1427 97.8083 22.2132 97.7503 22.209C97.5099 22.1924 97.3525 22.3333 97.2281 22.4949C97.05 22.7312 96.9049 22.9881 96.7474 23.2367C96.6397 23.4066 96.5319 23.5807 96.4242 23.7589C96.4532 23.7547 96.5071 23.7506 96.561 23.7382C97.5845 23.5144 98.546 23.1041 99.5032 22.6856C100.349 22.3168 101.202 21.9645 102.052 21.604C102.093 21.5874 102.143 21.5543 102.155 21.5128C102.284 21.1399 102.686 20.8415 103.08 20.8415H103.983C104.037 20.5804 104.058 20.597 104.294 20.6964C104.501 20.7835 104.737 20.8208 104.965 20.8332C105.147 20.8415 105.288 20.8912 105.417 21.0155C105.566 21.1606 105.703 21.3056 105.955 21.3139C106.208 21.3222 106.32 21.8361 106.109 22.0557C105.972 22.1966 105.798 22.3126 105.616 22.3913C105.284 22.5364 104.928 22.6358 104.596 22.7809C104.36 22.8803 104.132 23.0088 103.925 23.1538C103.825 23.2202 103.78 23.3652 103.705 23.4647C103.66 23.5268 103.61 23.5931 103.548 23.6346C103.084 23.9702 102.806 24.4261 102.673 24.9275C103.059 25.0187 103.428 25.1554 103.801 25.1803C104.397 25.2217 104.617 25.69 104.911 26.0671C105.466 26.7757 105.624 27.6087 105.583 28.4872C105.562 28.8809 105.549 29.2787 105.525 29.6724C105.525 29.7263 105.446 29.8133 105.4 29.8133C105.272 29.8133 105.214 29.8796 105.147 29.9666C105.023 30.1283 104.828 30.178 104.621 30.0744C104.302 29.9169 103.999 29.7304 103.668 29.5398C103.672 29.5398 103.635 29.5771 103.593 29.5854C103.237 29.6434 102.926 29.8009 102.636 30.0081C102.586 30.0454 102.504 30.0412 102.437 30.0578C102.354 30.0785 102.263 30.0868 102.184 30.1158C101.803 30.2526 101.405 30.3562 101.053 30.5468C100.133 31.0482 99.093 31.0275 98.1191 31.2886C97.4602 31.4626 96.8013 31.6533 96.1466 31.8522C95.9269 31.9185 95.9145 31.9185 95.8689 31.6947C95.8565 31.6367 95.8026 31.5787 95.7612 31.529C95.7073 31.4668 95.6451 31.4129 95.5788 31.3632C95.4213 31.2513 95.3426 31.1187 95.3385 30.9115C95.3385 30.7291 95.2432 30.551 95.1934 30.3686C95.152 30.207 95.1188 30.0412 95.0857 29.8755C95.0774 29.8382 95.0732 29.8009 95.0567 29.7677C94.8453 29.3533 94.8868 29.084 95.2017 28.7234C95.583 28.2925 96.0595 28.2179 96.5775 28.3795C96.7682 28.4375 96.88 28.3671 96.9464 28.2262C97.2654 27.5838 97.7627 27.0824 98.2351 26.5561C98.7034 26.0381 99.1676 25.5118 99.6193 24.9814C99.7643 24.8115 99.8596 24.6001 99.9798 24.4095C99.8679 24.3764 99.7726 24.3473 99.6814 24.3183C99.6897 24.3308 99.698 24.3432 99.7104 24.3515C99.3043 24.5462 98.9106 24.7659 98.4962 24.9316C97.6177 25.288 96.735 25.6361 95.8399 25.9511C95.5084 26.0671 95.1354 26.063 94.7873 26.1417C94.663 26.1707 94.547 26.266 94.4516 26.3572C94.0994 26.6804 94.1533 26.6763 93.859 26.295C93.7679 26.1749 93.6601 26.063 93.5897 25.9304C93.5524 25.8641 93.5358 25.7314 93.5773 25.6817C93.7637 25.4414 93.7554 25.1761 93.7099 24.9068C93.6601 24.6291 93.5855 24.3556 93.5275 24.078C93.4737 23.8418 93.4861 23.6304 93.714 23.4771C93.83 23.4025 93.9212 23.2906 94.029 23.2077C94.0787 23.1704 94.1574 23.1456 94.2154 23.1538C94.9158 23.2699 95.5208 23.0461 96.0264 22.5903C96.5029 22.1634 96.9339 21.6786 97.3856 21.2227C97.5638 21.0445 97.7544 20.8788 97.9202 20.6882C98.1067 20.4768 98.2103 20.224 98.2351 19.9837C97.9326 19.9671 97.655 19.9464 97.3773 19.9339C97.34 19.9339 97.282 19.9464 97.2613 19.9712C97.1121 20.1453 96.9173 20.1411 96.7226 20.1163C96.5568 20.0956 96.3869 20.0583 96.2294 20.0044C95.9974 19.9256 95.8772 19.7557 95.8772 19.503C95.8772 19.3331 95.8772 19.1632 95.8772 18.9932C95.8192 18.9808 95.7777 18.9767 95.7363 18.9601C95.6037 18.9145 95.5871 18.8399 95.6907 18.7363C95.8233 18.6037 95.9601 18.4752 96.0885 18.3343C96.1714 18.239 96.2336 18.1313 96.1756 17.9904C96.1631 17.9572 96.2294 17.8495 96.2709 17.8412C96.3869 17.8246 96.5071 17.8412 96.6273 17.8536C96.6894 17.8619 96.7516 17.8826 96.8055 17.9117C97.2323 18.1354 97.6011 17.9862 97.9243 17.7045C98.6247 17.0994 99.3167 16.482 100.005 15.8645C100.042 15.8313 100.059 15.7526 100.05 15.6987C99.9881 15.1434 99.8969 14.5881 99.8555 14.0287C99.8265 13.635 99.8513 13.2372 99.8803 12.8435C99.9466 12.0023 100.063 11.161 99.8928 10.3198C99.8265 9.98411 99.7187 9.65674 99.6358 9.35008L99.6524 9.36665ZM103.237 27.7537C103.262 27.2357 103.22 26.726 103.042 26.237C103.03 26.1997 102.963 26.1749 102.922 26.15C102.835 26.1003 102.731 26.0671 102.657 26.0008C102.495 25.8558 102.354 25.6817 102.189 25.5408C102.006 25.3875 101.857 25.3999 101.683 25.5532C101.538 25.6817 101.376 25.806 101.264 25.9594C101.103 26.1831 100.978 26.4318 100.788 26.639C100.643 26.8006 100.543 27.0037 100.415 27.1819C100.121 27.5797 99.8223 27.9734 99.5157 28.3671C99.4825 28.4085 99.4162 28.4334 99.3582 28.4541C99.3209 28.4706 99.2587 28.4541 99.2339 28.4748C99.0681 28.624 98.9106 28.7773 98.749 28.9265C98.749 28.9265 98.7614 28.9389 98.7697 28.9389C98.8195 28.9389 98.8692 28.9431 98.9189 28.9431C99.4908 28.9431 100.017 28.7525 100.539 28.5535C101.414 28.222 102.276 27.8615 103.229 27.7496L103.237 27.7537ZM102.147 13.4444C102.147 13.4444 102.184 13.461 102.205 13.4692C102.234 13.4278 102.271 13.3947 102.296 13.3491C102.682 12.6736 103.067 11.994 103.448 11.3143C103.477 11.2605 103.498 11.1983 103.502 11.1403C103.511 10.9331 103.502 10.7259 103.506 10.5146C103.506 10.4109 103.469 10.3737 103.374 10.3488C102.926 10.2328 102.346 10.4482 102.131 10.8544C102.06 10.9828 102.081 11.1652 102.081 11.3226C102.081 11.4511 102.143 11.5754 102.143 11.7039C102.151 12.2841 102.143 12.8601 102.143 13.4402L102.147 13.4444Z" fill="#9A7412"/>
<path d="M77.3293 9.61945C77.723 9.95097 78.1208 10.2576 78.3487 10.7176C78.3943 10.8088 78.4606 10.9 78.4689 10.9911C78.4772 11.1072 78.4772 11.2729 78.4067 11.3392C77.9177 11.7868 77.723 12.3835 77.5365 12.9885C77.3624 13.5604 77.205 14.1323 77.0433 14.6917C77.2174 14.729 77.3914 14.7705 77.5696 14.8036C77.6401 14.8161 77.7271 14.8368 77.7893 14.8161C77.9757 14.7498 78.1166 14.8161 78.2492 14.9445C78.415 15.1062 78.56 15.2843 78.8253 15.3092C78.8999 15.3175 79.0035 15.475 79.0159 15.5703C79.0449 15.8148 79.0283 16.0593 79.0242 16.3079C79.0242 16.4612 78.9289 16.5566 78.7838 16.5773C78.6388 16.598 78.56 16.685 78.4772 16.7969C77.8763 17.6299 77.3997 18.525 77.0806 19.503C77.0599 19.561 77.0475 19.6231 77.0226 19.706C77.3168 19.706 77.5903 19.706 77.8639 19.706C78.2161 19.706 78.5683 19.706 78.9247 19.706C79.1278 19.706 79.2521 19.8013 79.335 19.9795C79.5132 20.3566 79.4966 20.7379 79.335 21.115C79.2107 21.4051 78.8957 21.5833 78.5849 21.5543C78.3611 21.5335 78.1332 21.5253 77.9094 21.4921C77.4494 21.4217 77.035 21.5626 76.5999 21.6869C76.2518 21.7863 75.8581 21.7698 75.4893 21.749C75.2697 21.7366 75.0335 21.3595 75.0169 21.1274C74.9423 20.1992 75.1412 19.3289 75.5598 18.5001C75.7877 18.0443 75.9907 17.576 76.2104 17.116C76.2808 16.971 76.2933 16.8591 76.1399 16.7472C75.9907 16.6353 75.8499 16.5027 75.7255 16.3618C75.6426 16.2665 75.5805 16.1422 75.5473 16.022C75.4893 15.8106 75.4852 15.5869 75.4189 15.3797C75.1495 14.5591 75.2655 13.7552 75.4727 12.943C75.6054 12.425 75.709 11.9028 75.8126 11.3765C75.8871 10.9994 75.854 10.6347 75.5681 10.3156C75.1164 10.498 74.6854 10.7549 74.2793 11.0533C73.5748 11.563 73.0153 12.2219 72.4725 12.8932C71.7224 13.8215 71.1091 14.8409 70.5123 15.8977C70.9557 15.9142 71.3494 16.0717 71.7224 16.2748C71.8136 16.3245 71.9006 16.4405 71.9296 16.54C72.0456 16.942 72.1368 17.3481 72.2404 17.7542C72.2611 17.721 72.2943 17.6713 72.3233 17.6174C72.8786 16.5856 73.4339 15.5537 73.9892 14.5218C74.0596 14.3892 74.1549 14.2939 74.3166 14.3188C74.4782 14.3436 74.5196 14.468 74.5652 14.613C74.7517 15.2636 74.4782 15.7899 74.1384 16.3038C74.1094 16.3494 74.0596 16.3991 74.0513 16.4488C73.9353 17.2113 73.5955 17.8992 73.3054 18.5996C72.891 19.6066 72.4517 20.6011 72.0539 21.6123C71.826 22.1883 71.7017 22.7933 71.681 23.4149C71.6768 23.5807 71.5898 23.6884 71.4157 23.7382C71.3287 23.763 71.2417 23.8293 71.1878 23.8998C70.9433 24.2355 70.6367 24.4882 70.2181 24.5297C69.9612 24.5545 69.6918 24.5007 69.439 24.4468C69.3603 24.4302 69.2898 24.2935 69.2567 24.194C69.2235 24.1028 69.2401 23.9951 69.2443 23.8956C69.2443 23.8003 69.2194 23.7465 69.1365 23.6843C69.0578 23.6263 68.9915 23.502 68.9915 23.4025C68.979 22.6897 68.9832 21.977 68.9873 21.2642C68.9873 21.0984 69.0785 21.0073 69.236 20.9492C69.3147 20.9202 69.3934 20.8498 69.4307 20.7793C69.8286 19.9837 70.0316 19.1259 70.1642 18.2515C70.185 18.1271 70.2015 18.0028 70.2264 17.8412C69.7913 17.9407 69.3976 18.0567 69.0868 18.3675C69.0619 18.3924 69.0578 18.4462 69.0495 18.4877C68.979 18.8565 68.6061 19.1259 68.2455 19.0678C67.7275 18.9808 67.4167 18.5333 67.4872 17.9614C67.6032 16.9875 67.9762 16.1297 68.6972 15.4418C68.7345 15.4087 68.776 15.3714 68.7926 15.3258C69.2484 14.3519 69.8866 13.49 70.4709 12.5907C70.5538 12.4664 70.6284 12.3379 70.7154 12.2053C70.5248 12.3131 70.3631 12.4415 70.1725 12.5037C69.2857 12.7938 68.5729 13.4071 67.7441 13.8049C67.1805 14.0784 66.6501 14.4265 66.1197 14.7622C65.9249 14.8865 65.7633 15.0606 65.5934 15.2222C65.4649 15.3465 65.3323 15.3797 65.1624 15.3175C64.9386 15.2346 64.7107 15.1642 64.4828 15.0979C64.2217 15.0191 64.0062 14.729 63.9813 14.4597C63.9275 13.8961 63.8529 13.3325 63.7866 12.7731C63.77 12.628 63.7534 12.483 63.7286 12.3421C63.6788 12.0561 63.8031 11.8406 63.9855 11.6459C64.3626 11.2398 64.8184 10.9953 65.3779 11.1279C65.5892 11.1776 65.7674 11.3641 65.9622 11.4843C66.0409 11.534 66.1238 11.5962 66.2108 11.6086C66.82 11.6873 67.3629 11.4594 67.8974 11.2108C68.1378 11.0989 68.3616 10.9207 68.6144 10.8751C69.0992 10.7881 69.4888 10.498 69.9363 10.3447C70.9599 9.99241 71.6975 9.29621 72.2694 8.4011C72.3854 8.22291 72.5139 8.04886 72.6299 7.87066C72.7128 7.7422 72.804 7.64689 72.9697 7.62617C73.0112 7.62202 73.0692 7.55987 73.0775 7.51843C73.2101 6.90511 73.6494 6.46169 73.9477 5.94369C74.8636 4.33995 75.6012 2.66162 76.0115 0.854817C76.0736 0.589599 76.0819 0.307806 76.3471 0.150333C76.4673 0.0798842 76.6082 -0.0112848 76.7325 0.0011473C77.1967 0.0342996 77.6566 0.104748 78.1166 0.162764C78.2244 0.175196 78.3321 0.220781 78.4316 0.208349C78.9289 0.150333 79.1568 0.548159 79.4634 0.809233C79.509 0.850673 79.5256 0.929408 79.5463 0.995713C79.6043 1.16562 79.6416 1.34381 79.7245 1.50129C79.8281 1.69606 79.8364 1.87425 79.6997 2.04829C79.4054 2.4254 79.1361 2.82738 78.8087 3.17133C77.6815 4.3358 76.7242 5.62874 75.8416 6.9797C75.6302 7.30708 75.3857 7.61374 75.1371 7.95769C75.2158 7.92868 75.2738 7.90796 75.3277 7.8831C76.1524 7.51842 76.9687 7.14131 77.8017 6.8015C78.4233 6.54872 79.0739 6.3871 79.7535 6.47413C79.9524 6.49899 80.1431 6.56529 80.3337 6.62745C80.4829 6.67304 80.5699 6.78078 80.6072 6.93826C80.6196 7.00042 80.6942 7.05015 80.7481 7.09573C80.9677 7.2905 81.2371 7.44797 81.407 7.67589C81.7965 8.20219 81.6101 8.72019 80.976 8.86524C80.4497 8.98541 79.9069 9.02685 79.3764 9.13045C78.7838 9.24234 78.1954 9.3791 77.6069 9.5117C77.5116 9.53242 77.4246 9.5863 77.321 9.62774L77.3293 9.61945Z" fill="#9A7412"/>
<path d="M82.7199 23.9246C82.7033 23.8749 82.6826 23.7754 82.6453 23.6842C82.6287 23.6428 82.5997 23.5972 82.5624 23.5682C82.3014 23.3651 82.0527 23.2781 81.6922 23.419C80.7474 23.792 79.7528 23.9992 78.7582 24.1898C78.3562 24.2644 78.1159 24.5296 77.9791 24.9026C77.946 24.9937 77.8838 25.0725 77.8465 25.1636C77.8258 25.2175 77.8175 25.2921 77.83 25.346C78.0247 26.0463 78.4101 26.6472 78.8743 27.1859C79.3591 27.7454 79.8895 28.2717 80.4117 28.8021C80.5443 28.9389 80.6147 29.0798 80.6065 29.2704C80.5982 29.5605 80.5816 29.8506 80.6065 30.1406C80.6438 30.5302 80.4117 30.7457 80.1216 30.8741C78.7789 31.4543 77.3783 31.8065 75.9071 31.7817C74.9747 31.7651 74.0506 31.6822 73.1804 31.2761C72.1568 30.7995 71.4564 30.0122 70.8804 29.0798C70.7644 28.8933 70.6608 28.6944 70.5696 28.4955C70.3748 28.0852 70.0682 27.762 69.7491 27.4553C69.5212 27.2357 69.3968 26.9787 69.4756 26.6596C69.546 26.3696 69.8154 26.2784 70.0392 26.4732C70.6401 26.9995 71.2285 27.5423 71.8335 28.0645C72.2894 28.4582 72.7535 28.8518 73.2425 29.2041C73.7522 29.5729 74.3407 29.7304 74.9789 29.6309C75.07 29.6185 75.1571 29.5812 75.2482 29.548C75.4471 29.4776 75.6419 29.3781 75.8491 29.3325C76.048 29.287 76.2014 29.1958 76.3132 29.0342C76.4044 28.8974 76.5204 28.8187 76.6862 28.8187C76.7981 28.8187 76.8188 28.7648 76.8188 28.6654C76.8354 28.2758 76.8561 27.8863 76.881 27.4967C76.91 27.0699 76.8893 26.6555 76.6531 26.2577C76.5702 26.4234 76.4293 26.4607 76.2677 26.4607C76.2179 26.4607 76.1641 26.4607 76.1185 26.4773C75.5715 26.6928 74.9996 26.7135 74.4277 26.7135C74.2454 26.7135 74.1003 26.6679 73.9594 26.527C73.8102 26.382 73.603 26.2908 73.4248 26.1789C73.2549 26.0712 73.0767 25.9717 72.9151 25.8557C72.6002 25.6278 72.4924 25.2465 72.6292 24.8984C72.6872 24.7534 72.7825 24.6498 72.9441 24.6374C73.5284 24.5959 74.1128 24.5545 74.6971 24.513C75.3808 24.4675 76.0646 24.426 76.7525 24.3804C76.7898 24.3804 76.8271 24.3638 76.8561 24.3473C77.8009 23.7174 78.8618 23.332 79.9144 22.9342C80.507 22.7104 81.0996 22.47 81.6881 22.2338C81.9781 22.1178 82.2599 22.209 82.5459 22.2338C83.0846 22.2836 83.6233 22.3457 84.162 22.4079C84.2408 22.4162 84.3361 22.4203 84.3983 22.4617C84.7505 22.6897 85.0986 22.93 85.4425 23.1704C85.4923 23.2035 85.542 23.2615 85.5586 23.3154C85.6705 23.7588 85.8155 24.1981 85.8694 24.6498C85.9274 25.1305 85.6705 25.5117 85.3182 25.835C85.024 26.1085 84.7381 26.3944 84.4646 26.6887C84.0004 27.1859 83.557 27.7081 82.9934 28.0935C82.6992 28.2965 82.3718 28.4499 82.061 28.6281C81.9947 28.6654 81.945 28.7317 81.8828 28.769C81.7917 28.8228 81.6922 28.8933 81.5927 28.8974C81.4684 28.9057 81.3607 28.8187 81.3482 28.6819C81.3275 28.4664 81.2612 28.2344 81.5223 28.1018C81.5472 28.0893 81.5596 28.052 81.572 28.0272C81.974 27.1652 82.3801 26.3033 82.5832 25.3708C82.6578 25.0269 82.6329 24.6581 82.6619 24.3017C82.6702 24.1857 82.6992 24.0738 82.7241 23.9246H82.7199Z" fill="#9A7412"/>
<path d="M64.656 28.8602C64.7389 27.9071 64.9171 27.0286 65.547 26.3075C65.7956 26.0216 66.152 26.0257 66.4297 26.2785C66.612 26.4443 66.7156 26.6225 66.6866 26.8711C66.6783 26.9415 66.7073 27.0203 66.7363 27.0866C66.8731 27.385 66.9435 27.3891 67.1466 27.1363C67.4367 26.7758 67.822 26.6432 68.195 26.7799C68.5555 26.9125 68.6094 27.1985 68.3276 27.4513C68.2737 27.501 68.2116 27.5549 68.1826 27.6212C67.7475 28.5619 67.5776 29.5357 67.822 30.5593C67.8469 30.6546 67.8842 30.7499 67.9174 30.8452C67.9298 30.8742 67.9547 30.9033 67.9547 30.9323C67.9629 31.1768 67.9837 31.4213 67.9547 31.6575C67.9464 31.7321 67.8013 31.8481 67.7184 31.8481C67.5154 31.8481 67.2999 31.8274 67.1176 31.7528C66.583 31.5331 66.1313 31.1726 65.692 30.8038C65.4351 30.5883 65.1906 30.3645 64.9461 30.1325C64.8798 30.0703 64.8093 29.9833 64.7969 29.9004C64.7389 29.5399 64.7016 29.1793 64.6601 28.8478L64.656 28.8602Z" fill="#9A7412"/>
<path d="M71.9795 3.71419C72.7461 3.32465 73.5501 2.91854 74.3499 2.51657C74.6109 2.38396 74.8181 2.51242 74.8223 2.80665C74.8306 3.11745 74.7684 3.37438 74.4327 3.53185C74.2421 3.62302 74.1054 3.82608 73.9396 3.97941C73.8443 4.06644 73.7407 4.14932 73.6537 4.24463C73.4962 4.41453 73.3346 4.5803 73.202 4.76678C72.742 5.40082 72.2613 6.00999 71.6935 6.55286C71.4573 6.78078 71.1258 6.82636 70.8523 6.63574C70.3011 6.25863 70.0069 5.70333 69.8163 5.08173C69.7748 4.94912 69.6878 4.83308 69.6215 4.71291C69.5884 4.6466 69.5221 4.58444 69.5179 4.51814C69.4972 4.08716 69.4557 3.65203 69.4806 3.22105C69.5055 2.78593 69.7458 2.55387 70.1727 2.46684C70.2555 2.45026 70.3633 2.44612 70.4296 2.48341C70.8233 2.71962 71.2211 2.94755 71.5899 3.22105C71.7598 3.34537 71.8634 3.56086 71.9753 3.7059L71.9795 3.71419Z" fill="#9A7412"/>
<path d="M101.742 2.57041C101.907 2.57041 102.069 2.57456 102.235 2.57041C102.533 2.56212 102.761 2.67816 102.947 2.91437C103.01 2.9931 103.122 3.0304 103.217 3.07599C103.436 3.17959 103.644 3.28733 103.722 3.54841C103.747 3.623 103.843 3.67272 103.905 3.73489C104 3.8302 104.004 3.92137 103.88 3.99596C102.761 4.6673 101.576 5.09413 100.25 4.98639C99.9016 4.95738 99.5577 4.8662 99.2178 4.77504C98.6128 4.61342 98.0119 4.43108 97.4069 4.26118C97.3116 4.23217 97.2038 4.24046 97.1127 4.20316C97.0464 4.17416 96.9593 4.10785 96.9469 4.04569C96.9262 3.93794 96.9055 3.80534 97.0588 3.74318C98.2689 3.26661 99.4831 2.79419 100.784 2.62014C101.103 2.5787 101.422 2.57455 101.746 2.55383C101.746 2.56212 101.746 2.56627 101.746 2.57455L101.742 2.57041Z" fill="#9A7412"/>
</svg>
