<svg fill="none" xmlns="http://www.w3.org/2000/svg" viewBox="0 0 17 16"><path d="M12.634 8.8c.6 0 1.128-.328 1.4-.824l2.864-5.192a.797.797 0 0 0-.696-1.184H4.362L3.61 0H.994v1.6h1.6l2.88 6.072-1.08 1.952C3.81 10.696 4.578 12 5.794 12h9.6v-1.6h-9.6l.88-1.6h5.96ZM5.122 3.2h9.72l-2.208 4H7.018l-1.896-4Zm.672 9.6c-.88 0-1.592.72-1.592 1.6 0 .88.712 1.6 1.592 1.6.88 0 1.6-.72 1.6-1.6 0-.88-.72-1.6-1.6-1.6Zm8 0c-.88 0-1.592.72-1.592 1.6 0 .88.712 1.6 1.592 1.6.88 0 1.6-.72 1.6-1.6 0-.88-.72-1.6-1.6-1.6Z" fill="currentColor"/></svg>